<svg xmlns="http://www.w3.org/2000/svg" xmlns:xlink="http://www.w3.org/1999/xlink" width="800" zoomAndPan="magnify" viewBox="0 0 600 299.999988" height="400" preserveAspectRatio="xMidYMid meet" version="1.0"><defs><g/><clipPath id="579368e897"><path d="M 37 126 L 82 126 L 82 205.710938 L 37 205.710938 Z M 37 126 " clip-rule="nonzero"/></clipPath><clipPath id="0dc6677202"><path d="M 89 126 L 133 126 L 133 205.710938 L 89 205.710938 Z M 89 126 " clip-rule="nonzero"/></clipPath><clipPath id="5abaed0da6"><path d="M 0 0.289062 L 170.753906 0.289062 L 170.753906 172 L 0 172 Z M 0 0.289062 " clip-rule="nonzero"/></clipPath><clipPath id="1117df00aa"><rect x="0" width="411" y="0" height="78"/></clipPath><clipPath id="6efcf86461"><rect x="0" width="600" y="0" height="206"/></clipPath></defs><g transform="matrix(1, 0, 0, 1, 0, 47)"><g clip-path="url(#6efcf86461)"><g clip-path="url(#579368e897)"><path fill="#603913" d="M 81.550781 186.03125 C 81.550781 196.863281 72.777344 205.644531 61.960938 205.644531 L 46.695312 205.644531 C 46.601562 205.644531 46.503906 205.644531 46.40625 205.644531 C 46.308594 205.640625 46.210938 205.636719 46.113281 205.632812 C 36.285156 205.128906 34.945312 191.0625 44.464844 188.5625 C 48.421875 187.523438 53.554688 188.234375 57.144531 184.886719 C 61.515625 180.808594 62.46875 126.277344 62.46875 126.277344 L 81.550781 126.398438 Z M 81.550781 186.03125 " fill-opacity="1" fill-rule="nonzero"/></g><g clip-path="url(#0dc6677202)"><path fill="#603913" d="M 89.203125 186.03125 C 89.203125 196.863281 97.972656 205.644531 108.792969 205.644531 L 124.054688 205.644531 C 124.152344 205.644531 124.25 205.644531 124.347656 205.644531 C 124.445312 205.640625 124.539062 205.636719 124.636719 205.632812 C 134.46875 205.128906 135.804688 191.0625 126.285156 188.5625 C 122.328125 187.523438 117.199219 188.234375 113.609375 184.886719 C 109.238281 180.808594 108.285156 126.277344 108.285156 126.277344 L 89.203125 126.398438 Z M 89.203125 186.03125 " fill-opacity="1" fill-rule="nonzero"/></g><g clip-path="url(#5abaed0da6)"><path fill="#ffc564" d="M 170.753906 128.597656 C 170.753906 104.988281 151.640625 85.851562 128.066406 85.851562 C 151.640625 85.851562 170.753906 66.710938 170.753906 43.101562 C 170.753906 19.492188 151.640625 0.355469 128.066406 0.355469 C 104.488281 0.355469 85.375 19.492188 85.375 43.101562 C 85.375 19.492188 66.265625 0.355469 42.6875 0.355469 C 19.113281 0.355469 0 19.492188 0 43.101562 C 0 66.710938 19.113281 85.851562 42.6875 85.851562 C 19.113281 85.851562 0 104.988281 0 128.597656 C 0 152.207031 19.113281 171.347656 42.6875 171.347656 C 66.265625 171.347656 85.375 152.207031 85.375 128.597656 C 85.375 152.207031 104.488281 171.347656 128.0625 171.347656 C 151.640625 171.347656 170.75 152.207031 170.75 128.597656 Z M 170.753906 128.597656 " fill-opacity="1" fill-rule="nonzero"/></g><path fill="#ffffff" d="M 81.914062 79.496094 C 81.914062 80.253906 81.863281 81.003906 81.761719 81.75 C 81.65625 82.492188 81.503906 83.214844 81.300781 83.917969 C 81.097656 84.617188 80.847656 85.285156 80.554688 85.914062 C 80.257812 86.546875 79.925781 87.128906 79.550781 87.664062 C 79.175781 88.203125 78.765625 88.679688 78.324219 89.101562 C 77.886719 89.523438 77.417969 89.878906 76.929688 90.167969 C 76.441406 90.460938 75.933594 90.679688 75.414062 90.828125 C 74.894531 90.976562 74.371094 91.050781 73.839844 91.050781 C 73.308594 91.050781 72.785156 90.976562 72.261719 90.828125 C 71.742188 90.679688 71.238281 90.460938 70.75 90.167969 C 70.257812 89.878906 69.792969 89.523438 69.351562 89.101562 C 68.910156 88.679688 68.503906 88.203125 68.128906 87.664062 C 67.753906 87.128906 67.417969 86.546875 67.125 85.914062 C 66.828125 85.285156 66.582031 84.617188 66.378906 83.917969 C 66.175781 83.214844 66.019531 82.492188 65.917969 81.75 C 65.8125 81.003906 65.761719 80.253906 65.761719 79.496094 C 65.761719 78.738281 65.8125 77.984375 65.917969 77.242188 C 66.019531 76.496094 66.175781 75.773438 66.378906 75.074219 C 66.582031 74.371094 66.828125 73.707031 67.125 73.078125 C 67.417969 72.445312 67.753906 71.863281 68.128906 71.324219 C 68.503906 70.789062 68.910156 70.308594 69.351562 69.886719 C 69.792969 69.46875 70.257812 69.109375 70.75 68.820312 C 71.238281 68.53125 71.742188 68.3125 72.261719 68.164062 C 72.785156 68.015625 73.308594 67.941406 73.839844 67.941406 C 74.371094 67.941406 74.894531 68.015625 75.414062 68.164062 C 75.933594 68.3125 76.441406 68.53125 76.929688 68.820312 C 77.417969 69.109375 77.886719 69.46875 78.324219 69.886719 C 78.765625 70.308594 79.175781 70.789062 79.550781 71.324219 C 79.925781 71.863281 80.257812 72.445312 80.554688 73.078125 C 80.847656 73.707031 81.097656 74.371094 81.300781 75.074219 C 81.503906 75.773438 81.65625 76.496094 81.761719 77.242188 C 81.863281 77.984375 81.914062 78.738281 81.914062 79.496094 Z M 81.914062 79.496094 " fill-opacity="1" fill-rule="nonzero"/><path fill="#603913" d="M 79.761719 79.496094 C 79.761719 80.050781 79.722656 80.601562 79.648438 81.148438 C 79.570312 81.695312 79.460938 82.222656 79.3125 82.738281 C 79.160156 83.25 78.980469 83.738281 78.761719 84.203125 C 78.546875 84.664062 78.300781 85.09375 78.027344 85.484375 C 77.75 85.878906 77.453125 86.230469 77.128906 86.539062 C 76.804688 86.847656 76.464844 87.109375 76.105469 87.324219 C 75.746094 87.535156 75.375 87.695312 74.996094 87.804688 C 74.613281 87.914062 74.226562 87.96875 73.839844 87.96875 C 73.449219 87.96875 73.066406 87.914062 72.683594 87.804688 C 72.300781 87.695312 71.933594 87.535156 71.574219 87.324219 C 71.214844 87.109375 70.871094 86.847656 70.546875 86.539062 C 70.226562 86.230469 69.925781 85.878906 69.652344 85.484375 C 69.375 85.09375 69.128906 84.664062 68.914062 84.203125 C 68.699219 83.738281 68.515625 83.25 68.367188 82.738281 C 68.21875 82.222656 68.105469 81.695312 68.03125 81.148438 C 67.953125 80.601562 67.917969 80.050781 67.917969 79.496094 C 67.917969 78.9375 67.953125 78.386719 68.03125 77.84375 C 68.105469 77.296875 68.21875 76.765625 68.367188 76.253906 C 68.515625 75.738281 68.699219 75.25 68.914062 74.789062 C 69.128906 74.324219 69.375 73.898438 69.652344 73.503906 C 69.925781 73.109375 70.226562 72.761719 70.546875 72.449219 C 70.871094 72.140625 71.214844 71.878906 71.574219 71.667969 C 71.933594 71.453125 72.300781 71.292969 72.683594 71.1875 C 73.066406 71.078125 73.449219 71.023438 73.839844 71.023438 C 74.226562 71.023438 74.613281 71.078125 74.996094 71.1875 C 75.375 71.292969 75.746094 71.453125 76.105469 71.667969 C 76.464844 71.878906 76.804688 72.140625 77.128906 72.449219 C 77.453125 72.761719 77.75 73.109375 78.027344 73.503906 C 78.300781 73.898438 78.546875 74.324219 78.761719 74.789062 C 78.980469 75.25 79.160156 75.738281 79.3125 76.253906 C 79.460938 76.765625 79.570312 77.296875 79.648438 77.84375 C 79.722656 78.386719 79.761719 78.9375 79.761719 79.496094 Z M 79.761719 79.496094 " fill-opacity="1" fill-rule="nonzero"/><path fill="#ffffff" d="M 107.007812 79.496094 C 107.007812 80.253906 106.957031 81.003906 106.855469 81.75 C 106.75 82.492188 106.597656 83.214844 106.394531 83.917969 C 106.191406 84.617188 105.941406 85.285156 105.648438 85.914062 C 105.355469 86.546875 105.019531 87.128906 104.644531 87.664062 C 104.269531 88.203125 103.859375 88.679688 103.417969 89.101562 C 102.980469 89.523438 102.511719 89.878906 102.023438 90.167969 C 101.535156 90.460938 101.027344 90.679688 100.507812 90.828125 C 99.988281 90.976562 99.464844 91.050781 98.933594 91.050781 C 98.402344 91.050781 97.878906 90.976562 97.355469 90.828125 C 96.835938 90.679688 96.332031 90.460938 95.84375 90.167969 C 95.351562 89.878906 94.886719 89.523438 94.445312 89.101562 C 94.003906 88.679688 93.597656 88.203125 93.222656 87.664062 C 92.847656 87.128906 92.511719 86.546875 92.21875 85.914062 C 91.921875 85.285156 91.675781 84.617188 91.472656 83.917969 C 91.269531 83.214844 91.113281 82.492188 91.011719 81.75 C 90.90625 81.003906 90.855469 80.253906 90.855469 79.496094 C 90.855469 78.738281 90.90625 77.984375 91.011719 77.242188 C 91.113281 76.496094 91.269531 75.773438 91.472656 75.074219 C 91.675781 74.371094 91.921875 73.707031 92.21875 73.078125 C 92.511719 72.445312 92.847656 71.863281 93.222656 71.324219 C 93.597656 70.789062 94.003906 70.308594 94.445312 69.886719 C 94.886719 69.46875 95.351562 69.109375 95.84375 68.820312 C 96.332031 68.53125 96.835938 68.3125 97.355469 68.164062 C 97.878906 68.015625 98.402344 67.941406 98.933594 67.941406 C 99.464844 67.941406 99.988281 68.015625 100.507812 68.164062 C 101.027344 68.3125 101.535156 68.53125 102.023438 68.820312 C 102.511719 69.109375 102.980469 69.46875 103.417969 69.886719 C 103.859375 70.308594 104.269531 70.789062 104.644531 71.324219 C 105.019531 71.863281 105.355469 72.445312 105.648438 73.078125 C 105.941406 73.707031 106.191406 74.371094 106.394531 75.074219 C 106.597656 75.773438 106.75 76.496094 106.855469 77.242188 C 106.957031 77.984375 107.007812 78.738281 107.007812 79.496094 Z M 107.007812 79.496094 " fill-opacity="1" fill-rule="nonzero"/><path fill="#603913" d="M 104.855469 79.496094 C 104.855469 80.050781 104.816406 80.601562 104.742188 81.148438 C 104.664062 81.695312 104.554688 82.222656 104.40625 82.738281 C 104.253906 83.25 104.074219 83.738281 103.855469 84.203125 C 103.640625 84.664062 103.394531 85.09375 103.121094 85.484375 C 102.847656 85.878906 102.546875 86.230469 102.222656 86.539062 C 101.898438 86.847656 101.558594 87.109375 101.199219 87.324219 C 100.839844 87.535156 100.46875 87.695312 100.089844 87.804688 C 99.707031 87.914062 99.320312 87.96875 98.933594 87.96875 C 98.542969 87.96875 98.160156 87.914062 97.777344 87.804688 C 97.394531 87.695312 97.027344 87.535156 96.667969 87.324219 C 96.308594 87.109375 95.964844 86.847656 95.640625 86.539062 C 95.320312 86.230469 95.019531 85.878906 94.746094 85.484375 C 94.46875 85.09375 94.222656 84.664062 94.007812 84.203125 C 93.792969 83.738281 93.609375 83.25 93.460938 82.738281 C 93.3125 82.222656 93.199219 81.695312 93.125 81.148438 C 93.046875 80.601562 93.011719 80.050781 93.011719 79.496094 C 93.011719 78.9375 93.046875 78.386719 93.125 77.84375 C 93.199219 77.296875 93.3125 76.765625 93.460938 76.253906 C 93.609375 75.738281 93.792969 75.25 94.007812 74.789062 C 94.222656 74.324219 94.46875 73.898438 94.746094 73.503906 C 95.019531 73.109375 95.320312 72.761719 95.640625 72.449219 C 95.964844 72.140625 96.308594 71.878906 96.667969 71.667969 C 97.027344 71.453125 97.394531 71.292969 97.777344 71.1875 C 98.160156 71.078125 98.542969 71.023438 98.933594 71.023438 C 99.320312 71.023438 99.707031 71.078125 100.089844 71.1875 C 100.46875 71.292969 100.839844 71.453125 101.199219 71.667969 C 101.558594 71.878906 101.898438 72.140625 102.222656 72.449219 C 102.546875 72.761719 102.847656 73.109375 103.121094 73.503906 C 103.394531 73.898438 103.640625 74.324219 103.855469 74.789062 C 104.074219 75.25 104.253906 75.738281 104.40625 76.253906 C 104.554688 76.765625 104.664062 77.296875 104.742188 77.84375 C 104.816406 78.386719 104.855469 78.9375 104.855469 79.496094 Z M 104.855469 79.496094 " fill-opacity="1" fill-rule="nonzero"/><path fill="#ff8d8d" d="M 83.167969 91.050781 L 88.507812 91.050781 C 88.949219 91.050781 89.371094 91.132812 89.78125 91.304688 C 90.1875 91.472656 90.550781 91.714844 90.863281 92.027344 C 91.171875 92.339844 91.414062 92.699219 91.582031 93.109375 C 91.753906 93.515625 91.835938 93.941406 91.835938 94.382812 L 91.835938 94.386719 C 91.835938 94.828125 91.753906 95.253906 91.582031 95.660156 C 91.414062 96.070312 91.171875 96.429688 90.863281 96.742188 C 90.550781 97.054688 90.1875 97.296875 89.78125 97.464844 C 89.371094 97.636719 88.949219 97.71875 88.507812 97.71875 L 83.167969 97.71875 C 82.726562 97.71875 82.300781 97.636719 81.894531 97.464844 C 81.484375 97.296875 81.125 97.054688 80.8125 96.742188 C 80.5 96.429688 80.261719 96.070312 80.089844 95.660156 C 79.921875 95.253906 79.839844 94.828125 79.839844 94.386719 L 79.839844 94.382812 C 79.839844 93.941406 79.921875 93.515625 80.089844 93.109375 C 80.261719 92.699219 80.5 92.339844 80.8125 92.027344 C 81.125 91.714844 81.484375 91.472656 81.894531 91.304688 C 82.300781 91.132812 82.726562 91.050781 83.167969 91.050781 Z M 83.167969 91.050781 " fill-opacity="1" fill-rule="nonzero"/><g transform="matrix(1, 0, 0, 1, 189, 58)"><g clip-path="url(#1117df00aa)"><g fill="#603913" fill-opacity="1"><g transform="translate(0.45735, 62.444201)"><g><path d="M 22.53125 -47.5625 C 25.800781 -47.5625 28.675781 -47.101562 31.15625 -46.1875 C 33.632812 -45.269531 34.875 -44.023438 34.875 -42.453125 C 34.875 -40.890625 34.28125 -38.957031 33.09375 -36.65625 C 31.914062 -34.351562 30.925781 -33.203125 30.125 -33.203125 C 29.894531 -33.203125 29.632812 -33.320312 29.34375 -33.5625 C 29.050781 -33.8125 28.378906 -34.082031 27.328125 -34.375 C 26.285156 -34.664062 25.382812 -34.8125 24.625 -34.8125 C 22.03125 -34.8125 19.9375 -33.894531 18.34375 -32.0625 C 16.757812 -30.226562 15.96875 -27.421875 15.96875 -23.640625 C 15.96875 -19.867188 16.78125 -17.0625 18.40625 -15.21875 C 20.039062 -13.382812 22.113281 -12.46875 24.625 -12.46875 C 25.644531 -12.46875 26.789062 -12.613281 28.0625 -12.90625 C 29.34375 -13.195312 30.25 -13.613281 30.78125 -14.15625 C 30.875 -14.238281 31.054688 -14.28125 31.328125 -14.28125 C 31.597656 -14.28125 32.097656 -13.773438 32.828125 -12.765625 C 33.566406 -11.765625 34.25 -10.445312 34.875 -8.8125 C 35.5 -7.1875 35.8125 -5.925781 35.8125 -5.03125 C 35.8125 -3.289062 34.46875 -1.90625 31.78125 -0.875 C 29.101562 0.15625 25.929688 0.671875 22.265625 0.671875 C 16.367188 0.671875 11.519531 -1.40625 7.71875 -5.5625 C 3.914062 -9.726562 2.015625 -15.597656 2.015625 -23.171875 C 2.015625 -30.753906 3.96875 -36.710938 7.875 -41.046875 C 11.789062 -45.390625 16.675781 -47.5625 22.53125 -47.5625 Z M 22.53125 -47.5625 "/></g></g></g><g fill="#603913" fill-opacity="1"><g transform="translate(38.089826, 62.444201)"><g><path d="M 23.3125 0.671875 C 17.03125 0.671875 11.910156 -1.382812 7.953125 -5.5 C 3.992188 -9.613281 2.015625 -15.613281 2.015625 -23.5 C 2.015625 -31.394531 4.015625 -37.378906 8.015625 -41.453125 C 12.015625 -45.523438 17.175781 -47.5625 23.5 -47.5625 C 29.832031 -47.5625 34.941406 -45.554688 38.828125 -41.546875 C 42.722656 -37.546875 44.671875 -31.488281 44.671875 -23.375 C 44.671875 -15.257812 42.679688 -9.222656 38.703125 -5.265625 C 34.722656 -1.304688 29.59375 0.671875 23.3125 0.671875 Z M 23.34375 -34.671875 C 21.195312 -34.671875 19.394531 -33.6875 17.9375 -31.71875 C 16.488281 -29.757812 15.765625 -27 15.765625 -23.4375 C 15.765625 -19.882812 16.457031 -17.15625 17.84375 -15.25 C 19.226562 -13.351562 21.050781 -12.40625 23.3125 -12.40625 C 25.570312 -12.40625 27.40625 -13.363281 28.8125 -15.28125 C 30.21875 -17.207031 30.921875 -19.957031 30.921875 -23.53125 C 30.921875 -27.113281 30.191406 -29.863281 28.734375 -31.78125 C 27.285156 -33.707031 25.488281 -34.671875 23.34375 -34.671875 Z M 23.34375 -34.671875 "/></g></g></g><g fill="#603913" fill-opacity="1"><g transform="translate(84.778271, 62.444201)"><g><path d="M 50.3125 0.0625 C 46.332031 0.0625 44.34375 -0.382812 44.34375 -1.28125 L 42.9375 -28.171875 L 34.75 -0.9375 C 34.570312 -0.40625 33.050781 -0.140625 30.1875 -0.140625 C 27.320312 -0.140625 25.847656 -0.382812 25.765625 -0.875 L 17.3125 -28.4375 L 16.359375 -1.671875 C 16.316406 -1.003906 15.46875 -0.546875 13.8125 -0.296875 C 12.164062 -0.0546875 10.789062 0.0625 9.6875 0.0625 C 8.59375 0.0625 7.53125 -0.00390625 6.5 -0.140625 C 4.351562 -0.453125 3.304688 -1.007812 3.359375 -1.8125 L 4.890625 -45.40625 C 4.890625 -46.476562 7.617188 -47.015625 13.078125 -47.015625 C 14.691406 -47.015625 16.660156 -46.890625 18.984375 -46.640625 C 21.304688 -46.398438 22.601562 -45.921875 22.875 -45.203125 L 30.390625 -24.078125 L 36.953125 -45.28125 C 37.359375 -46.4375 40.445312 -47.015625 46.21875 -47.015625 C 47.875 -47.015625 49.851562 -46.890625 52.15625 -46.640625 C 54.457031 -46.398438 55.609375 -45.96875 55.609375 -45.34375 L 57.546875 -1.34375 C 57.546875 -0.851562 56.675781 -0.492188 54.9375 -0.265625 C 53.195312 -0.046875 51.65625 0.0625 50.3125 0.0625 Z M 50.3125 0.0625 "/></g></g></g><g fill="#603913" fill-opacity="1"><g transform="translate(145.620817, 62.444201)"><g><path d="M 50.3125 0.0625 C 46.332031 0.0625 44.34375 -0.382812 44.34375 -1.28125 L 42.9375 -28.171875 L 34.75 -0.9375 C 34.570312 -0.40625 33.050781 -0.140625 30.1875 -0.140625 C 27.320312 -0.140625 25.847656 -0.382812 25.765625 -0.875 L 17.3125 -28.4375 L 16.359375 -1.671875 C 16.316406 -1.003906 15.46875 -0.546875 13.8125 -0.296875 C 12.164062 -0.0546875 10.789062 0.0625 9.6875 0.0625 C 8.59375 0.0625 7.53125 -0.00390625 6.5 -0.140625 C 4.351562 -0.453125 3.304688 -1.007812 3.359375 -1.8125 L 4.890625 -45.40625 C 4.890625 -46.476562 7.617188 -47.015625 13.078125 -47.015625 C 14.691406 -47.015625 16.660156 -46.890625 18.984375 -46.640625 C 21.304688 -46.398438 22.601562 -45.921875 22.875 -45.203125 L 30.390625 -24.078125 L 36.953125 -45.28125 C 37.359375 -46.4375 40.445312 -47.015625 46.21875 -47.015625 C 47.875 -47.015625 49.851562 -46.890625 52.15625 -46.640625 C 54.457031 -46.398438 55.609375 -45.96875 55.609375 -45.34375 L 57.546875 -1.34375 C 57.546875 -0.851562 56.675781 -0.492188 54.9375 -0.265625 C 53.195312 -0.046875 51.65625 0.0625 50.3125 0.0625 Z M 50.3125 0.0625 "/></g></g></g><g fill="#603913" fill-opacity="1"><g transform="translate(206.463362, 62.444201)"><g><path d="M 25.28125 -45.609375 C 25.28125 -46.503906 27.707031 -46.953125 32.5625 -46.953125 C 37.414062 -46.953125 39.84375 -46.503906 39.84375 -45.609375 L 39.84375 -14.828125 C 39.84375 -10.265625 38.207031 -6.539062 34.9375 -3.65625 C 31.675781 -0.769531 27.171875 0.671875 21.421875 0.671875 C 15.679688 0.671875 11.007812 -0.8125 7.40625 -3.78125 C 3.8125 -6.757812 2.015625 -10.773438 2.015625 -15.828125 L 2.015625 -45.546875 C 2.015625 -46.441406 4.4375 -46.890625 9.28125 -46.890625 C 14.132812 -46.890625 16.5625 -46.441406 16.5625 -45.546875 L 16.5625 -15.296875 C 16.5625 -14.398438 17.035156 -13.679688 17.984375 -13.140625 C 18.960938 -12.609375 19.988281 -12.34375 21.0625 -12.34375 C 22.132812 -12.34375 23.101562 -12.585938 23.96875 -13.078125 C 24.84375 -13.566406 25.28125 -14.304688 25.28125 -15.296875 Z M 25.28125 -45.609375 "/></g></g></g><g fill="#603913" fill-opacity="1"><g transform="translate(248.590288, 62.444201)"><g><path d="M 40.109375 -1.46875 C 40.109375 -0.53125 38.003906 -0.0625 33.796875 -0.0625 C 29.597656 -0.0625 27.320312 -0.398438 26.96875 -1.078125 L 15.765625 -22 L 15.765625 -1.140625 C 15.765625 -0.335938 13.695312 0.0625 9.5625 0.0625 C 5.425781 0.0625 3.359375 -0.335938 3.359375 -1.140625 L 3.359375 -46.015625 C 3.359375 -46.679688 5.125 -47.015625 8.65625 -47.015625 C 10.039062 -47.015625 11.660156 -46.890625 13.515625 -46.640625 C 15.367188 -46.398438 16.5 -45.945312 16.90625 -45.28125 L 27.640625 -24.625 L 27.640625 -45.6875 C 27.640625 -46.53125 29.71875 -46.953125 33.875 -46.953125 C 38.03125 -46.953125 40.109375 -46.53125 40.109375 -45.6875 Z M 40.109375 -1.46875 "/></g></g></g><g fill="#603913" fill-opacity="1"><g transform="translate(292.058842, 62.444201)"><g><path d="M 7.78125 -11.53125 L 7.78125 -35.421875 L 3.015625 -35.421875 C 2.253906 -35.421875 1.71875 -36.378906 1.40625 -38.296875 C 1.269531 -39.234375 1.203125 -40.191406 1.203125 -41.171875 C 1.203125 -42.160156 1.269531 -43.128906 1.40625 -44.078125 C 1.71875 -45.992188 2.253906 -46.953125 3.015625 -46.953125 L 25.5625 -46.953125 C 26.320312 -46.953125 26.832031 -45.992188 27.09375 -44.078125 C 27.28125 -43.128906 27.375 -42.160156 27.375 -41.171875 C 27.375 -40.191406 27.28125 -39.234375 27.09375 -38.296875 C 26.832031 -36.378906 26.320312 -35.421875 25.5625 -35.421875 L 21.0625 -35.421875 L 21.0625 -11.53125 L 25.765625 -11.53125 C 26.515625 -11.53125 27.050781 -10.570312 27.375 -8.65625 C 27.550781 -7.71875 27.640625 -6.753906 27.640625 -5.765625 C 27.640625 -4.785156 27.550781 -3.828125 27.375 -2.890625 C 27.050781 -0.960938 26.515625 0 25.765625 0 L 3.15625 0 C 2.394531 0 1.878906 -0.960938 1.609375 -2.890625 C 1.429688 -3.828125 1.34375 -4.785156 1.34375 -5.765625 C 1.34375 -6.753906 1.429688 -7.71875 1.609375 -8.65625 C 1.878906 -10.570312 2.394531 -11.53125 3.15625 -11.53125 Z M 7.78125 -11.53125 "/></g></g></g><g fill="#603913" fill-opacity="1"><g transform="translate(320.836633, 62.444201)"><g><path d="M 23.3125 0.671875 C 17.03125 0.671875 11.910156 -1.382812 7.953125 -5.5 C 3.992188 -9.613281 2.015625 -15.613281 2.015625 -23.5 C 2.015625 -31.394531 4.015625 -37.378906 8.015625 -41.453125 C 12.015625 -45.523438 17.175781 -47.5625 23.5 -47.5625 C 29.832031 -47.5625 34.941406 -45.554688 38.828125 -41.546875 C 42.722656 -37.546875 44.671875 -31.488281 44.671875 -23.375 C 44.671875 -15.257812 42.679688 -9.222656 38.703125 -5.265625 C 34.722656 -1.304688 29.59375 0.671875 23.3125 0.671875 Z M 23.34375 -34.671875 C 21.195312 -34.671875 19.394531 -33.6875 17.9375 -31.71875 C 16.488281 -29.757812 15.765625 -27 15.765625 -23.4375 C 15.765625 -19.882812 16.457031 -17.15625 17.84375 -15.25 C 19.226562 -13.351562 21.050781 -12.40625 23.3125 -12.40625 C 25.570312 -12.40625 27.40625 -13.363281 28.8125 -15.28125 C 30.21875 -17.207031 30.921875 -19.957031 30.921875 -23.53125 C 30.921875 -27.113281 30.191406 -29.863281 28.734375 -31.78125 C 27.285156 -33.707031 25.488281 -34.671875 23.34375 -34.671875 Z M 23.34375 -34.671875 "/></g></g></g><g fill="#603913" fill-opacity="1"><g transform="translate(367.525078, 62.444201)"><g><path d="M 40.109375 -1.46875 C 40.109375 -0.53125 38.003906 -0.0625 33.796875 -0.0625 C 29.597656 -0.0625 27.320312 -0.398438 26.96875 -1.078125 L 15.765625 -22 L 15.765625 -1.140625 C 15.765625 -0.335938 13.695312 0.0625 9.5625 0.0625 C 5.425781 0.0625 3.359375 -0.335938 3.359375 -1.140625 L 3.359375 -46.015625 C 3.359375 -46.679688 5.125 -47.015625 8.65625 -47.015625 C 10.039062 -47.015625 11.660156 -46.890625 13.515625 -46.640625 C 15.367188 -46.398438 16.5 -45.945312 16.90625 -45.28125 L 27.640625 -24.625 L 27.640625 -45.6875 C 27.640625 -46.53125 29.71875 -46.953125 33.875 -46.953125 C 38.03125 -46.953125 40.109375 -46.53125 40.109375 -45.6875 Z M 40.109375 -1.46875 "/></g></g></g></g></g><g fill="#ffc564" fill-opacity="1"><g transform="translate(189.45735, 143.633849)"><g><path d="M 8.75 -7.375 C 9.269531 -7.289062 9.742188 -7.078125 10.171875 -6.734375 C 10.609375 -6.390625 10.953125 -5.960938 11.203125 -5.453125 C 11.460938 -4.953125 11.59375 -4.414062 11.59375 -3.84375 C 11.59375 -3.113281 11.40625 -2.457031 11.03125 -1.875 C 10.664062 -1.289062 10.128906 -0.832031 9.421875 -0.5 C 8.710938 -0.164062 7.878906 0 6.921875 0 L 1.578125 0 L 1.578125 -14.328125 L 6.71875 -14.328125 C 7.6875 -14.328125 8.515625 -14.164062 9.203125 -13.84375 C 9.890625 -13.519531 10.40625 -13.082031 10.75 -12.53125 C 11.09375 -11.988281 11.265625 -11.375 11.265625 -10.6875 C 11.265625 -9.832031 11.035156 -9.128906 10.578125 -8.578125 C 10.117188 -8.023438 9.507812 -7.625 8.75 -7.375 Z M 3.453125 -8.140625 L 6.59375 -8.140625 C 7.46875 -8.140625 8.144531 -8.34375 8.625 -8.75 C 9.101562 -9.164062 9.34375 -9.734375 9.34375 -10.453125 C 9.34375 -11.179688 9.101562 -11.75 8.625 -12.15625 C 8.144531 -12.570312 7.453125 -12.78125 6.546875 -12.78125 L 3.453125 -12.78125 Z M 6.765625 -1.546875 C 7.691406 -1.546875 8.414062 -1.765625 8.9375 -2.203125 C 9.457031 -2.640625 9.71875 -3.25 9.71875 -4.03125 C 9.71875 -4.820312 9.441406 -5.445312 8.890625 -5.90625 C 8.347656 -6.363281 7.617188 -6.59375 6.703125 -6.59375 L 3.453125 -6.59375 L 3.453125 -1.546875 Z M 6.765625 -1.546875 "/></g></g></g><g fill="#ffc564" fill-opacity="1"><g transform="translate(202.049556, 143.633849)"><g><path d="M 11.28125 -11.265625 L 4.5 5.296875 L 2.5625 5.296875 L 4.78125 -0.125 L 0.25 -11.265625 L 2.328125 -11.265625 L 5.859375 -2.140625 L 9.34375 -11.265625 Z M 11.28125 -11.265625 "/></g></g></g><g fill="#ffc564" fill-opacity="1"><g transform="translate(213.614662, 143.633849)"><g/></g></g><g fill="#ffc564" fill-opacity="1"><g transform="translate(219.099355, 143.633849)"><g><path d="M 12.84375 0 L 10.96875 0 L 3.453125 -11.40625 L 3.453125 0 L 1.578125 0 L 1.578125 -14.34375 L 3.453125 -14.34375 L 10.96875 -2.953125 L 10.96875 -14.34375 L 12.84375 -14.34375 Z M 12.84375 0 "/></g></g></g><g fill="#ffc564" fill-opacity="1"><g transform="translate(233.540336, 143.633849)"><g><path d="M 2.171875 0.125 C 1.816406 0.125 1.515625 0.00390625 1.265625 -0.234375 C 1.023438 -0.484375 0.90625 -0.789062 0.90625 -1.15625 C 0.90625 -1.507812 1.023438 -1.804688 1.265625 -2.046875 C 1.515625 -2.296875 1.816406 -2.421875 2.171875 -2.421875 C 2.515625 -2.421875 2.804688 -2.296875 3.046875 -2.046875 C 3.285156 -1.804688 3.40625 -1.507812 3.40625 -1.15625 C 3.40625 -0.789062 3.285156 -0.484375 3.046875 -0.234375 C 2.804688 0.00390625 2.515625 0.125 2.171875 0.125 Z M 2.171875 0.125 "/></g></g></g><g fill="#ffc564" fill-opacity="1"><g transform="translate(237.854136, 143.633849)"><g><path d="M 8.078125 0.140625 C 6.742188 0.140625 5.53125 -0.164062 4.4375 -0.78125 C 3.34375 -1.40625 2.476562 -2.273438 1.84375 -3.390625 C 1.207031 -4.515625 0.890625 -5.773438 0.890625 -7.171875 C 0.890625 -8.566406 1.207031 -9.820312 1.84375 -10.9375 C 2.476562 -12.050781 3.34375 -12.921875 4.4375 -13.546875 C 5.53125 -14.171875 6.742188 -14.484375 8.078125 -14.484375 C 9.421875 -14.484375 10.640625 -14.171875 11.734375 -13.546875 C 12.828125 -12.921875 13.6875 -12.050781 14.3125 -10.9375 C 14.945312 -9.832031 15.265625 -8.578125 15.265625 -7.171875 C 15.265625 -5.753906 14.945312 -4.488281 14.3125 -3.375 C 13.6875 -2.269531 12.828125 -1.40625 11.734375 -0.78125 C 10.640625 -0.164062 9.421875 0.140625 8.078125 0.140625 Z M 8.078125 -1.484375 C 9.078125 -1.484375 9.976562 -1.710938 10.78125 -2.171875 C 11.582031 -2.640625 12.210938 -3.304688 12.671875 -4.171875 C 13.128906 -5.035156 13.359375 -6.035156 13.359375 -7.171875 C 13.359375 -8.316406 13.128906 -9.316406 12.671875 -10.171875 C 12.210938 -11.035156 11.582031 -11.695312 10.78125 -12.15625 C 9.988281 -12.625 9.085938 -12.859375 8.078125 -12.859375 C 7.054688 -12.859375 6.148438 -12.625 5.359375 -12.15625 C 4.566406 -11.695312 3.941406 -11.035156 3.484375 -10.171875 C 3.023438 -9.316406 2.796875 -8.316406 2.796875 -7.171875 C 2.796875 -6.035156 3.023438 -5.035156 3.484375 -4.171875 C 3.941406 -3.304688 4.570312 -2.640625 5.375 -2.171875 C 6.175781 -1.710938 7.078125 -1.484375 8.078125 -1.484375 Z M 8.078125 -1.484375 "/></g></g></g><g fill="#ffc564" fill-opacity="1"><g transform="translate(254.000099, 143.633849)"><g><path d="M 2.171875 0.125 C 1.816406 0.125 1.515625 0.00390625 1.265625 -0.234375 C 1.023438 -0.484375 0.90625 -0.789062 0.90625 -1.15625 C 0.90625 -1.507812 1.023438 -1.804688 1.265625 -2.046875 C 1.515625 -2.296875 1.816406 -2.421875 2.171875 -2.421875 C 2.515625 -2.421875 2.804688 -2.296875 3.046875 -2.046875 C 3.285156 -1.804688 3.40625 -1.507812 3.40625 -1.15625 C 3.40625 -0.789062 3.285156 -0.484375 3.046875 -0.234375 C 2.804688 0.00390625 2.515625 0.125 2.171875 0.125 Z M 2.171875 0.125 "/></g></g></g><g fill="#ffc564" fill-opacity="1"><g transform="translate(258.313899, 143.633849)"><g><path d="M 16.109375 -14.21875 L 16.109375 0 L 14.234375 0 L 14.234375 -10.609375 L 9.515625 0 L 8.203125 0 L 3.453125 -10.625 L 3.453125 0 L 1.578125 0 L 1.578125 -14.21875 L 3.59375 -14.21875 L 8.859375 -2.46875 L 14.109375 -14.21875 Z M 16.109375 -14.21875 "/></g></g></g><g fill="#ffc564" fill-opacity="1"><g transform="translate(276.00052, 143.633849)"><g><path d="M 2.171875 0.125 C 1.816406 0.125 1.515625 0.00390625 1.265625 -0.234375 C 1.023438 -0.484375 0.90625 -0.789062 0.90625 -1.15625 C 0.90625 -1.507812 1.023438 -1.804688 1.265625 -2.046875 C 1.515625 -2.296875 1.816406 -2.421875 2.171875 -2.421875 C 2.515625 -2.421875 2.804688 -2.296875 3.046875 -2.046875 C 3.285156 -1.804688 3.40625 -1.507812 3.40625 -1.15625 C 3.40625 -0.789062 3.285156 -0.484375 3.046875 -0.234375 C 2.804688 0.00390625 2.515625 0.125 2.171875 0.125 Z M 2.171875 0.125 "/></g></g></g><g fill="#ffc564" fill-opacity="1"><g transform="translate(280.314321, 143.633849)"><g><path d="M 3.40625 -14.328125 L 3.40625 -5.265625 C 3.40625 -3.984375 3.71875 -3.035156 4.34375 -2.421875 C 4.96875 -1.804688 5.832031 -1.5 6.9375 -1.5 C 8.039062 -1.5 8.898438 -1.804688 9.515625 -2.421875 C 10.140625 -3.035156 10.453125 -3.984375 10.453125 -5.265625 L 10.453125 -14.328125 L 12.328125 -14.328125 L 12.328125 -5.28125 C 12.328125 -4.09375 12.085938 -3.085938 11.609375 -2.265625 C 11.128906 -1.453125 10.476562 -0.847656 9.65625 -0.453125 C 8.84375 -0.0546875 7.929688 0.140625 6.921875 0.140625 C 5.910156 0.140625 4.992188 -0.0546875 4.171875 -0.453125 C 3.359375 -0.847656 2.71875 -1.453125 2.25 -2.265625 C 1.78125 -3.085938 1.546875 -4.09375 1.546875 -5.28125 L 1.546875 -14.328125 Z M 3.40625 -14.328125 "/></g></g></g></g></g></svg>